HIERARCHY
ROOT root
{
	OFFSET	0	13.1	24.9
	CHANNELS 6  Xposition Yposition Zposition Xrotation Yrotation Zrotation
	JOINT spine_1
	{
		OFFSET	0	9.99999	0
		CHANNELS 3  Xrotation Yrotation Zrotation
		JOINT spine_2
		{
			OFFSET	0	112	-10
			CHANNELS 3  Xrotation Yrotation Zrotation
			JOINT spine_3
			{
				OFFSET	0	206.5	19.3
				CHANNELS 3  Xrotation Yrotation Zrotation
				JOINT spine_4
				{
					OFFSET	0	110.4	14.6
					CHANNELS 3  Xrotation Yrotation Zrotation
					JOINT neck_1
					{
						OFFSET	0	71.8	-50.3
						CHANNELS 3  Xrotation Yrotation Zrotation
						JOINT neck_2
						{
							OFFSET	0	86.2	-25.8
							CHANNELS 3  Xrotation Yrotation Zrotation
							JOINT head_ee
							{
								OFFSET	0	179.8	-8.7
								CHANNELS 3  Xrotation Yrotation Zrotation
								End Site
								{
									OFFSET	1	0	0
								}
							}
						}
					}
					JOINT left_clavicle
					{
						OFFSET	-43.2	22.4	-70.8
						CHANNELS 3  Xrotation Yrotation Zrotation
						JOINT left_shoulder
						{
							OFFSET	-93.9	-5.79999	48.7
							CHANNELS 3  Xrotation Yrotation Zrotation
							JOINT left_elbow
							{
								OFFSET	-291.4	-30.8	15.2
								CHANNELS 3  Xrotation Yrotation Zrotation
								JOINT left_lowarm_twist
								{
									OFFSET	-110.7	-3.89999	13.6
									CHANNELS 3  Xrotation Yrotation Zrotation
									JOINT left_hand
									{
										OFFSET	-110.7	-3.89999	13.6
										CHANNELS 3  Xrotation Yrotation Zrotation
										JOINT left_ee
										{
											OFFSET	-80.8	-5.10001	12.1
											CHANNELS 3  Xrotation Yrotation Zrotation
											End Site
											{
												OFFSET	1	0	0
											}
										}
									}
								}
							}
						}
					}
					JOINT right_clavicle
					{
						OFFSET	43.2	22.4	-70.8
						CHANNELS 3  Xrotation Yrotation Zrotation
						JOINT right_shoulder
						{
							OFFSET	93.9	-5.79999	48.7
							CHANNELS 3  Xrotation Yrotation Zrotation
							JOINT right_elbow
							{
								OFFSET	291.4	-30.8	15.2
								CHANNELS 3  Xrotation Yrotation Zrotation
								JOINT right_lowarm_twist
								{
									OFFSET	110.7	-3.89999	13.6
									CHANNELS 3  Xrotation Yrotation Zrotation
									JOINT right_hand
									{
										OFFSET	110.7	-3.89999	13.6
										CHANNELS 3  Xrotation Yrotation Zrotation
										JOINT right_ee
										{
											OFFSET	80.8	-5.10001	12.1
											CHANNELS 3  Xrotation Yrotation Zrotation
											End Site
											{
												OFFSET	1	0	0
											}
										}
									}
								}
							}
						}
					}
				}
			}
		}
	}
	JOINT left_hip
	{
		OFFSET	-82.8	-127.5	0.300001
		CHANNELS 3  Xrotation Yrotation Zrotation
		JOINT left_knee
		{
			OFFSET	-28.2	-396.7	2.2
			CHANNELS 3  Xrotation Yrotation Zrotation
			JOINT left_ankle
			{
				OFFSET	-11.7	-411.3	35.4
				CHANNELS 3  Xrotation Yrotation Zrotation
				JOINT left_toes
				{
					OFFSET	0	-60	-88.6
					CHANNELS 3  Xrotation Yrotation Zrotation
					JOINT left_foot_ee
					{
						OFFSET	-22.5	-16.5	-42.2
						CHANNELS 3  Xrotation Yrotation Zrotation
						End Site
						{
							OFFSET	1	0	0
						}
					}
				}
			}
		}
	}
	JOINT right_hip
	{
		OFFSET	82.8	-127.5	0.300001
		CHANNELS 3  Xrotation Yrotation Zrotation
		JOINT right_knee
		{
			OFFSET	28.2	-396.7	2.2
			CHANNELS 3  Xrotation Yrotation Zrotation
			JOINT right_ankle
			{
				OFFSET	11.7	-411.3	35.4
				CHANNELS 3  Xrotation Yrotation Zrotation
				JOINT right_toes
				{
					OFFSET	0	-60	-88.6
					CHANNELS 3  Xrotation Yrotation Zrotation
					JOINT right_foot_ee
					{
						OFFSET	22.5	-16.5	-42.2
						CHANNELS 3  Xrotation Yrotation Zrotation
						End Site
						{
							OFFSET	1	0	0
						}
					}
				}
			}
		}
	}
}
MOTION
Frames: 7
Frame Time: 0.02
811.654272572 613.628 -1885.58390483 13.2997924388 28.656148389 -3.72339101122 -3.37757 -0.0848714 -0.795536 -3.37722 -0.0340791 -0.799324 -3.37627 0.180902 -0.779331 -3.37711 0.0555553 -0.798119 0.363995 -6.06296 2.51087 0.529827 -12.8391 2.11291 -0.0 0.0 -0.0 8.09946 -8.67995 15.7613 0.135766 -20.5463 51.6644 1.84014 -42.3467 0.712812 -13.1009 -0.641211 1.54386 -1.53096 4.4487 -8.24085 -0.0 0.0 -0.0 4.98079 -8.86747 -9.80241 -13.7075 23.0016 -58.0005 0.500951 13.937 -0.0612297 14.7421 -0.281916 1.85689 0.705839 -12.2942 -9.56577 0.0 0.0 0.0 -2.04347 -18.6796 4.68601 -15.8238 0.321991 2.39928 27.6836 27.4946 -3.89547 -10.1722 0.0 0.0 -0.0 0.0 -0.0 -3.52745 2.10041 0.652812 -33.7353 0.117034 -5.10189 35.4894 -10.2779 4.461 -30.4435 0.0 0.0 0.0 0.0 0.0 
805.359854297 609.692 -1893.12715426 13.2192880068 29.0906114709 -3.94897317263 -3.38093 -0.128582 -0.783156 -3.38059 -0.078489 -0.78975 -3.37901 0.135583 -0.781975 -3.37987 0.0103869 -0.793573 0.553456 -6.23303 2.5501 0.731068 -13.1645 2.16025 -0.0 0.0 -0.0 8.06006 -8.15437 15.6897 2.46765 -20.4282 50.7033 1.92078 -43.5718 0.76777 -12.8423 -0.62518 1.5149 -1.79097 4.16862 -10.1064 -0.0 0.0 -0.0 4.95154 -9.12566 -9.75229 -14.2264 22.7869 -57.9813 0.46747 13.0384 -0.0534205 14.3446 -0.280623 1.80613 0.682063 -12.1369 -9.35409 0.0 0.0 0.0 -2.17966 -18.6756 4.49673 -16.5305 0.320812 2.5077 27.5658 27.2603 -3.87507 -10.4444 0.0 0.0 -0.0 0.0 -0.0 -1.59544 2.78896 0.927932 -32.8344 0.0748933 -4.97008 36.5238 -10.6817 4.5633 -30.4421 0.0 0.0 0.0 0.0 0.0 
798.764381841 605.317 -1898.47376799 12.843343116 29.3860231199 -3.24834896509 -3.39957 -0.198474 -0.941642 -3.39909 -0.138155 -0.952362 -3.39604 0.12186 -0.954584 -3.39731 -0.0304207 -0.961849 0.868597 -5.90628 3.57682 1.08655 -13.4179 3.34764 -0.0 0.0 -0.0 8.16133 -7.73917 15.9126 4.71777 -20.4215 50.0957 2.0905 -45.9956 0.88735 -12.8843 -0.627771 1.5196 -2.08312 4.38823 -11.9642 -0.0 0.0 -0.0 4.89359 -9.40446 -9.6518 -14.9539 22.563 -58.2964 0.441899 12.3477 -0.0478019 13.8931 -0.278727 1.7485 0.69071 -12.053 -9.37802 0.0 0.0 0.0 -2.66689 -17.4494 4.44174 -15.3514 0.322033 2.3268 28.2839 27.576 -3.97044 -10.3456 0.0 0.0 -0.0 0.0 -0.0 -1.01656 2.08247 -0.00852739 -32.3736 0.0541438 -4.90242 37.2088 -12.5865 4.64501 -30.042 0.0 0.0 0.0 0.0 0.0 
796.28912539 605.519 -1901.6376174 12.0219417603 30.3128858194 -3.16956375046 -3.35284 -0.238917 -0.987439 -3.35232 -0.175603 -1.00064 -3.3484 0.0978596 -1.01121 -3.34983 -0.0630611 -1.01397 1.31252 -5.72865 4.49206 1.5823 -13.8494 4.42422 -0.0 0.0 -0.0 8.622 -7.2469 16.896 6.90341 -20.6095 49.3046 2.19477 -47.3868 0.96323 -12.5154 -0.605103 1.4782 -2.30835 4.92733 -13.222 -0.0 0.0 -0.0 4.8302 -9.48548 -9.54066 -15.2942 22.4497 -58.3394 0.426862 11.9398 -0.0446385 13.6368 -0.277448 1.71579 0.765588 -12.5309 -10.0375 0.0 0.0 0.0 -3.17475 -18.1528 4.69944 -13.5894 0.316919 2.05652 28.0226 26.9481 -3.92245 -10.5398 0.0 0.0 -0.0 0.0 -0.0 0.901016 2.17612 0.498212 -26.2438 -0.169515 -3.98872 36.1007 -13.4766 4.54838 -30.3802 0.0 0.0 0.0 0.0 0.0 
784.090427276 606.24 -1902.19350506 10.33002887 32.2044355026 -2.7934385016 -3.32781 -0.248056 -0.928827 -3.32735 -0.188452 -0.942728 -3.32348 0.0695989 -0.958855 -3.32476 -0.0827007 -0.957814 0.109128 -5.763 5.35699 0.403476 -14.6393 5.20736 -0.0 0.0 -0.0 8.73597 -6.85939 17.1414 9.65298 -20.6272 49.3743 2.44644 -50.4643 1.15302 -11.6639 -0.553801 1.38209 -2.49581 5.92673 -13.9929 -0.0 0.0 -0.0 4.76031 -9.51514 -9.41782 -15.8313 22.4175 -58.8279 0.449707 12.559 -0.0494854 13.3876 -0.276065 1.68399 0.921416 -13.3121 -11.3247 0.0 0.0 0.0 -2.80264 -16.777 4.89004 -11.7504 0.302721 1.77473 29.7027 27.2753 -4.1317 -11.8175 0.0 0.0 -0.0 0.0 -0.0 3.15053 4.66209 0.633891 -19.0848 -0.305406 -2.89927 33.9995 -12.8437 4.33377 -30.5603 0.0 0.0 0.0 0.0 0.0 
779.888866649 606.357 -1904.79900068 9.58040361685 33.0381416834 -2.89416524223 -3.20362 -0.358463 -0.816043 -3.2033 -0.305811 -0.837197 -3.19818 -0.0735987 -0.888255 -3.19922 -0.212953 -0.865487 -0.9342 -7.57117 4.10975 -0.660273 -16.8829 3.52017 -0.0 0.0 -0.0 8.96763 -6.69241 17.6341 10.4995 -20.2908 49.6372 2.50858 -51.1677 1.20119 -11.0558 -0.518039 1.31298 -2.57915 7.38192 -13.8195 -0.0 0.0 -0.0 4.749 -9.58166 -9.39859 -16.152 22.3779 -58.921 0.472508 13.1741 -0.0545629 13.302 -0.275558 1.67307 0.986742 -13.5915 -11.845 0.0 0.0 0.0 -2.63797 -15.5459 4.40359 -9.66398 0.27567 1.45574 31.0657 27.2229 -4.28944 -12.6506 0.0 0.0 -0.0 0.0 -0.0 5.48913 6.85126 0.154168 -15.3623 -0.322039 -2.32847 31.5065 -12.0202 4.06948 -30.6343 0.0 0.0 0.0 0.0 0.0 
766.962871915 603.267 -1913.33578243 7.76056945591 33.4589105592 -2.26813766213 -2.80896 -0.243645 -0.884625 -2.80854 -0.186863 -0.898334 -2.80498 0.0510099 -0.916143 -2.80614 -0.0943118 -0.912702 0.612099 -8.08805 1.90114 0.84514 -15.9219 1.29072 -0.0 0.0 -0.0 9.19323 -6.68813 18.1141 10.5819 -20.3449 49.3753 2.47486 -50.7886 1.17499 -9.05182 -0.405438 1.08269 -2.17855 7.27233 -11.203 -0.0 0.0 -0.0 4.26605 -9.69269 -8.55285 -16.3089 22.4167 -59.1899 0.521997 14.4983 -0.0663988 14.7563 -0.281956 1.8587 1.70837 -14.1164 -16.7036 0.0 0.0 0.0 -1.67987 -13.8375 4.65689 -9.61995 0.274974 1.44902 31.6287 26.8146 -4.34237 -15.6556 0.0 0.0 -0.0 0.0 -0.0 4.30373 9.27487 0.437661 -3.52216 -0.128909 -0.525085 24.8117 -9.22425 3.31213 -35.4656 0.0 0.0 0.0 0.0 0.0 
